<svg width="28" height="33" viewBox="0 0 28 33" fill="none" xmlns="http://www.w3.org/2000/svg">
    <g filter="url(#filter0_d_1_59)">
        <path d="M24 13.0686C24 18.0771 19.5228 26.549 14 29C8.47715 26.549 4 18.0771 4 13.0686C4 8.06016 8.47715 4 14 4C19.5228 4 24 8.06016 24 13.0686Z" fill="white"/>
        <path d="M23.5 13.0686C23.5 15.4515 22.4243 18.7324 20.641 21.7383C18.9037 24.6668 16.5502 27.2408 14 28.4499C11.4499 27.2408 9.09631 24.6668 7.35895 21.7383C5.57573 18.7324 4.5 15.4515 4.5 13.0686C4.5 8.38118 8.70618 4.5 14 4.5C19.2938 4.5 23.5 8.38118 23.5 13.0686Z" stroke="#E42E2A"/>
    </g>

    <path fill-rule="evenodd" clip-rule="evenodd" d="M14 21C17.9743 21 21.1961 17.7782 21.1961 13.8039C21.1961 9.82964 17.9743 6.60785 14 6.60785C10.0257 6.60785 6.80396 9.82964 6.80396 13.8039C6.80396 17.7782 10.0257 21 14 21ZM14.0001 16.8039C15.657 16.8039 17.0001 15.4608 17.0001 13.8039C17.0001 12.1471 15.657 10.8039 14.0001 10.8039C12.3433 10.8039 11.0001 12.1471 11.0001 13.8039C11.0001 15.4608 12.3433 16.8039 14.0001 16.8039Z" fill="#E42E2A"/>
    <path d="M20.1961 13.8039C20.1961 17.2259 17.422 20 14 20V22C18.5266 22 22.1961 18.3305 22.1961 13.8039H20.1961ZM14 7.60785C17.422 7.60785 20.1961 10.3819 20.1961 13.8039H22.1961C22.1961 9.27736 18.5266 5.60785 14 5.60785V7.60785ZM7.80396 13.8039C7.80396 10.3819 10.578 7.60785 14 7.60785V5.60785C9.47346 5.60785 5.80396 9.27736 5.80396 13.8039H7.80396ZM14 20C10.578 20 7.80396 17.2259 7.80396 13.8039H5.80396C5.80396 18.3305 9.47346 22 14 22V20ZM16.0001 13.8039C16.0001 14.9085 15.1047 15.8039 14.0001 15.8039V17.8039C16.2093 17.8039 18.0001 16.0131 18.0001 13.8039H16.0001ZM14.0001 11.8039C15.1047 11.8039 16.0001 12.6994 16.0001 13.8039H18.0001C18.0001 11.5948 16.2093 9.80393 14.0001 9.80393V11.8039ZM12.0001 13.8039C12.0001 12.6994 12.8956 11.8039 14.0001 11.8039V9.80393C11.791 9.80393 10.0001 11.5948 10.0001 13.8039H12.0001ZM14.0001 15.8039C12.8956 15.8039 12.0001 14.9085 12.0001 13.8039H10.0001C10.0001 16.0131 11.791 17.8039 14.0001 17.8039V15.8039Z" fill="#E42E2A" mask="url(#path-3-inside-1_1_59)"/>
</svg>
