<svg width="28" height="33" viewBox="0 0 28 33" fill="none" xmlns="http://www.w3.org/2000/svg">
    <g filter="url(#filter0_d_1_58)">
        <path d="M24 13.0686C24 18.0771 19.5228 26.549 14 29C8.47715 26.549 4 18.0771 4 13.0686C4 8.06016 8.47715 4 14 4C19.5228 4 24 8.06016 24 13.0686Z" fill="white"/>
        <path d="M23.5 13.0686C23.5 15.4515 22.4243 18.7324 20.641 21.7383C18.9037 24.6668 16.5502 27.2408 14 28.4499C11.4499 27.2408 9.09631 24.6668 7.35895 21.7383C5.57573 18.7324 4.5 15.4515 4.5 13.0686C4.5 8.38118 8.70618 4.5 14 4.5C19.2938 4.5 23.5 8.38118 23.5 13.0686Z" stroke="#4976CB"/>
    </g>
    <path fill-rule="evenodd" clip-rule="evenodd" d="M14 21C17.9743 21 21.1961 17.7782 21.1961 13.8039C21.1961 9.82964 17.9743 6.60785 14 6.60785C10.0257 6.60785 6.80396 9.82964 6.80396 13.8039C6.80396 17.7782 10.0257 21 14 21ZM14.0001 16.8039C15.657 16.8039 17.0001 15.4608 17.0001 13.8039C17.0001 12.1471 15.657 10.8039 14.0001 10.8039C12.3433 10.8039 11.0001 12.1471 11.0001 13.8039C11.0001 15.4608 12.3433 16.8039 14.0001 16.8039Z" fill="#4976CB"/>
</svg>
